<svg class="svg-icon" style="width: 1em; height: 1em;vertical-align: middle;fill: currentColor;overflow: hidden;" viewBox="0 0 1024 1024" version="1.1" xmlns="http://www.w3.org/2000/svg"><path d="M947.24 583.34c2.9-37.16-2.58-74.66-14.45-110.37-3.71-11.14-7.9-22.35-15.1-31.62-7.75-10-18.5-17.1-28.09-25.33-20-17.19-35.45-39.69-57.51-54.16-15-9.87-32.41-15.48-49.54-21-40.71-13.07-85.91-26-124.95-8.53-71.35-47.48-171.68-46.43-242 2.54-21.77-19.68-52.93-26.7-82.1-23.61s-56.65 15.35-81.92 30.25c-12 7.09-23.9 14.9-37.36 18.63-12.66 3.5-26.13 3.19-38.82 6.61-23.16 6.23-41.16 24-58 41-5.47 5.54-11.07 11.26-14 18.45-3.24 7.82-2.46 16.78-4.76 24.86C97.43 455 96 459.24 92.75 462c-5.76 4.86-11.94 5.78-14.55 13.81-3.72 11.44-1.75 25.4-1.07 37.24a382.13 382.13 0 0 0 5.13 42.52c6 34.69 14.68 72.54 33.3 102.83 21.59 35.13 54 49.64 93.05 58.12a443 443 0 0 0 93.21 10.06h509.06c26 0 53.46-12.15 75.18-25.51 25.5-15.69 42.8-37.72 51.55-66.48a239.72 239.72 0 0 0 9.63-51.25z" fill="#FFA41F" /><path d="M937.61 583.79c-8.76 28.76-26.05 50.79-51.55 66.48-21.72 13.36-49.18 25.51-75.18 25.51H301.82a443 443 0 0 1-93.21-10.06c-39-8.48-71.46-23-93.05-58.12-18.62-30.28-27.34-68.13-33.3-102.83-1.65-9.61-3.05-19.32-4-29a0.14 0.14 0 0 1 0 0.06c-3.72 11.44-1.75 25.4-1.07 37.24a382.13 382.13 0 0 0 5.13 42.52c6 34.69 14.68 72.54 33.3 102.83 21.59 35.13 54 49.64 93.05 58.12a443 443 0 0 0 93.21 10.06h509c26 0 53.46-12.15 75.18-25.51 25.5-15.69 42.79-37.72 51.55-66.48a239.72 239.72 0 0 0 9.63-51.23 261.59 261.59 0 0 0-0.5-45.3 238.6 238.6 0 0 1-9.13 45.71z" fill="#FFDD92" /><path d="M259.72 737a12.5 12.5 0 1 1 8.84-3.66 12.59 12.59 0 0 1-8.84 3.66z" fill="#4F0F34" /><path d="M810.88 739.06h-507a12.5 12.5 0 1 1 0-25h507c24.93 0 51.08-12.87 68.63-23.66 23.21-14.28 38.31-33.73 46.15-59.47a227.63 227.63 0 0 0 9.11-48.56c2.68-34.29-2-69.77-13.84-105.45-3.24-9.75-6.93-19.92-13.11-27.92-4.68-6-11.05-11.11-17.8-16.51-2.81-2.24-5.72-4.57-8.56-7-8.58-7.37-16.25-15.53-23.67-23.43-10.61-11.28-20.63-21.94-32.55-29.76-13.74-9-30.4-14.35-46.51-19.52-41.77-13.41-82.08-24.19-116-9a12.48 12.48 0 0 1-12-1c-32.44-21.58-73.08-33.26-114.33-32.8s-81.64 12.93-113.62 35.19a12.49 12.49 0 0 1-15.52-1c-17.7-16-44.08-23.45-72.4-20.45-23.62 2.51-48.05 11.59-76.89 28.59-1.66 1-3.31 2-5 2.95-10.91 6.54-22.2 13.3-35.4 16.95a142.56 142.56 0 0 1-21.48 3.73 125.66 125.66 0 0 0-17.43 2.91c-20.53 5.52-37.45 22.64-52.38 37.75-4.57 4.63-9.3 9.42-11.4 14.45-1.16 2.8-1.59 6.61-2 10.64a77.66 77.66 0 0 1-2.23 12.85c-1.07 3.75-3.28 11.54-9.76 17a54.69 54.69 0 0 1-6.86 4.8c-3.48 2.15-3.54 2.33-3.86 3.33-2.33 7.14-1.61 16.83-0.92 26.2 0.16 2.2 0.32 4.36 0.44 6.46a368.6 368.6 0 0 0 5 41.11c5.21 30.33 13.5 68.92 31.63 98.41 16.89 27.48 42.33 43.16 85.06 52.44l1.65 0.36a12.5 12.5 0 1 1-5.22 24.45l-1.74-0.38c-23.28-5.06-41.29-11.56-56.67-20.46a123.62 123.62 0 0 1-44.38-43.32c-20.36-33.13-29.38-74.73-35-107.27a392.31 392.31 0 0 1-5.29-43.91c-0.11-2-0.26-4-0.41-6.05-0.83-11.23-1.77-24 2.07-35.77 3.22-9.9 10-14.1 14.5-16.87a31 31 0 0 0 3.88-2.64c0.24-0.25 0.84-1.24 1.84-4.74a58.65 58.65 0 0 0 1.39-8.84c0.61-5.31 1.29-11.33 3.8-17.39 4-9.55 11-16.7 16.71-22.45 16.31-16.5 36.61-37 63.66-44.31a146.68 146.68 0 0 1 20.94-3.59 122.46 122.46 0 0 0 17.8-3c9.94-2.75 19.31-8.36 29.23-14.3 1.7-1 3.41-2.05 5.11-3.05 32-18.88 59.66-29 87-31.91 31.64-3.34 61.74 4.1 84.17 20.55 34.67-21.82 76.81-34 119.75-34.45 43.95-0.47 87.24 11.36 122.82 33.38 40.34-14.88 85-3 127.47 10.65 17.7 5.68 36 11.56 52.58 22.43 14.4 9.44 25.92 21.7 37 33.54 7.29 7.76 14.18 15.09 21.74 21.58 2.52 2.16 5.13 4.25 7.89 6.45 7.59 6.07 15.44 12.34 21.93 20.7 8.61 11.09 13.34 24.06 17.09 35.35 12.92 38.87 18 77.65 15.05 115.28a253.07 253.07 0 0 1-10.13 53.9c-9.56 31.39-28.72 56.12-57 73.49-20.3 12.48-50.96 27.36-81.73 27.36z" fill="#4F0F34" /><path d="M791.41 489.35c-5.83-6-11.55-12.08-16.59-18.25q-9.8-12-19.62-24c-9.69-11.84-19.39-23.69-29.77-34.93C709 394.37 694 373.53 679 354.46c-7.19-9.13-14.63-18.48-24.69-24.28 18 10.24 40.7-0.76 61.26 1.93 7.88 1 15.35 4.08 22.64 7.26 17.09 7.46 32.16 9.16 43.79 25.46 14.2 19.91 20 44.7 21.85 69.09 0.9 11.95 0.86 23.95 0.7 35.93-0.15 10.52 3.44 22-0.27 32.22-4.39-4.16-8.61-8.45-12.87-12.72z" fill="#FFDD92" /><path d="M804.25 514.57a12.5 12.5 0 0 1-8.62-3.45c-3.61-3.44-7.13-7-10.53-10.39l-2.53-2.54-0.1-0.1c-7.24-7.41-12.76-13.47-17.34-19.09q-6.43-7.89-12.89-15.75l-6.72-8.25c-9.41-11.5-19.14-23.4-29.28-34.36-12.42-13.45-23.92-28.44-35-42.93-4-5.16-8.05-10.49-12-15.55-6.39-8.12-13-16.51-21.12-21.19a12.5 12.5 0 0 1 12.42-21.7c7.31 4.15 17.21 2.9 28.66 1.46 9-1.15 18.36-2.33 28-1.06 9.51 1.24 18.06 4.73 26 8.21 3.76 1.63 7.57 3 11.25 4.37 13.1 4.79 26.65 9.75 37.73 25.28 13.9 19.49 21.79 44.16 24.14 75.42 1 12.93 0.88 25.89 0.73 37a84.65 84.65 0 0 0 0.64 9.41c0.83 8.17 1.78 17.43-1.66 26.9a12.49 12.49 0 0 1-11.75 8.24z m-116-168.51l0.53 0.67c4.09 5.19 8.23 10.58 12.23 15.8 10.78 14 21.94 28.57 33.59 41.18 10.64 11.52 20.61 23.71 30.26 35.49l6.71 8.2q6.46 7.89 12.92 15.79c2.2 2.7 4.67 5.55 7.53 8.66v-2.18c0.15-10.6 0.23-22.91-0.66-34.81-2-26.57-8.4-47.11-19.57-62.77-6.58-9.23-14.71-12.2-26-16.32-4-1.47-8.2-3-12.65-4.94-6.57-2.87-13-5.51-19.26-6.33-6.5-0.85-13.87 0.08-21.67 1.07z" fill="#4F0F34" /><path d="M627.41 482.64c-11.68-35.56-28.19-69.55-45.39-102.88-13.38-25.91-29.18-53.41-56-64.69-35.38-14.85-75.3 3.86-109.13 21.46l60 66.84c21.8 24.3 43.77 48.74 69.69 68.59s56.3 35 88.78 38.13c-2.36-9.26-4.98-18.41-7.95-27.45z" fill="#FFDD92" /><path d="M635.32 522.59a11.84 11.84 0 0 1-1.19-0.05c-31.93-3.07-64-16.74-95.19-40.66-26.92-20.61-49.53-45.8-71.39-70.16l-60-66.84a12.5 12.5 0 0 1 3.53-19.44c37.14-19.32 80.09-38.54 119.74-21.89 30.55 12.82 48.18 43.1 62.31 70.48 16.81 32.57 34 67.79 46.17 104.71a391.65 391.65 0 0 1 8.17 28.37 12.49 12.49 0 0 1-12.14 15.48zM437 340.32L486.15 395c21.1 23.5 42.92 47.8 68 67 21.27 16.29 42.69 27.15 63.9 32.43-0.8-2.63-1.64-5.27-2.5-7.92-11.58-35.25-28.29-69.4-44.62-101C558.24 361 544 336.18 521.14 326.6c-25.46-10.69-55.02-0.43-84.14 13.72z" fill="#4F0F34" /><path d="M190.78 364.65a143.43 143.43 0 0 0 40.38-17.86c6.81-4.39 13.36-9.41 21-12.11 19.88-7.06 42 3.32 57.5 17.67 28.55 26.46 42.1 64.16 58.3 98.56 10.3 21.88 21.75 42.28 39.15 59.43 12.32 12.14 29 22.4 39.33 36.12-9 5.75-28.35-4.77-37.83-7.74a405 405 0 0 1-39.77-14.84 465.45 465.45 0 0 1-74.58-41.12 573 573 0 0 1-67.39-53.41q-15.9-14.6-30.8-30.2c-3.59-3.76-23.6-30.79-27.43-30.39a142.32 142.32 0 0 0 22.14-4.11z" fill="#FFDD92" /><path d="M439.67 560.68c-9.34 0-19.31-4-27.89-7.42-2.67-1.07-5.2-2.08-6.91-2.61a419.13 419.13 0 0 1-41-15.3 478.73 478.73 0 0 1-76.59-42.22 586.8 586.8 0 0 1-68.86-54.57c-10.58-9.71-21.13-20.06-31.38-30.77-1.31-1.37-3.21-3.74-6.73-8.15-3.92-4.91-12.73-15.94-16.43-19.32a12.5 12.5 0 0 1 3.47-24 130.77 130.77 0 0 0 20.2-3.75 130.67 130.67 0 0 0 36.85-16.3c1.38-0.89 2.74-1.8 4.1-2.71 5.62-3.76 12-8 19.49-10.67 21.87-7.76 48.1-0.18 70.17 20.28 25.53 23.67 39.52 54.72 53 84.75 2.63 5.84 5.35 11.87 8.07 17.66 9 19.14 19.69 39.16 36.62 55.85 4.34 4.28 9.4 8.4 14.75 12.77 9.1 7.42 18.52 15.1 25.78 24.71a12.5 12.5 0 0 1-3.19 18.09 24.42 24.42 0 0 1-13.52 3.68z m0.72-25.08zM194 376.74q2.7 3.33 5.87 7.31c2 2.55 4.58 5.73 5.27 6.47 9.86 10.31 20 20.28 30.2 29.62a563.29 563.29 0 0 0 65.92 52.25 453.85 453.85 0 0 0 72.56 40c9.73 4.21 19.58 8 29.39 11.38-1.65-1.48-3.28-3-4.86-4.55-19.76-19.48-32.16-42.78-41.68-63-2.81-6-5.57-12.11-8.25-18.05-12.5-27.75-25.42-56.45-47.24-76.68-11.67-10.82-29.58-20.46-44.82-15.05-4.55 1.61-9.11 4.66-13.94 7.89-1.48 1-3 2-4.47 2.95A155.61 155.61 0 0 1 194 376.72z" fill="#4F0F34" /><path d="M195.57 547.56c-21.47-2.2-43.72-13-59.21-25.88-9.46-7.86-18-16.69-26.58-25.51-7.41-7.65-17.39-15-23.17-23.95-4.17-6.47 4.33-10.34 7.42-14.74a32.36 32.36 0 0 0 6.31-16.84c1.11-20.72 17-32.84 17-32.84 7.06 20 14.41 40.52 24.53 59.15 14.53 26.75 38.27 46.78 61 66.29 11.32 9.67 5.93 15.67-7.3 14.32z" fill="#FFDD92" /><path d="M199.06 560.25a44.85 44.85 0 0 1-4.76-0.26c-22.44-2.29-47.09-13-65.94-28.7-10-8.32-18.93-17.52-27.55-26.42-2.16-2.23-4.67-4.53-7.32-6.95-5.92-5.42-12.62-11.55-17.38-18.92a18.17 18.17 0 0 1-1-18.7 30.82 30.82 0 0 1 7-8.37c0.58-0.54 1.46-1.35 1.76-1.7a20.18 20.18 0 0 0 4-10.26c1.4-26.18 21.09-41.47 21.93-42.11a12.49 12.49 0 0 1 19.36 5.78C135.63 422 143 442.77 152.87 461c13.12 24.15 35.28 43.14 56.71 61.51l1.47 1.26c12.69 10.89 11.18 20.45 9.15 25.18-1.54 3.56-6.56 11.3-21.14 11.3z m-99-90.91a126.88 126.88 0 0 0 10.29 10.13c2.8 2.57 5.71 5.23 8.39 8 8.17 8.42 16.61 17.13 25.59 24.6a108.53 108.53 0 0 0 38.35 20.25c-19.64-17.13-38.81-35.51-51.79-59.4a311.61 311.61 0 0 1-17-38 29.4 29.4 0 0 0-1.07 6.41c-0.43 8-3.31 15.88-8.56 23.36a30.78 30.78 0 0 1-4.18 4.65z" fill="#4F0F34" /><path d="M899.35 519.53a89.33 89.33 0 0 0 9.49-8.55c17.3-18.11 25.35-51 7.55-71.77-8-9.34-25.81-15.39-31-26.95 13.17 29.32 15.55 65.32 2.91 95.28-3.87 9.19-12.5 18.1-15.25 26.59a97.32 97.32 0 0 0 26.3-14.6z" fill="#FFDD92" /><path d="M873.06 546.63a12.49 12.49 0 0 1-11.89-16.34c2-6.19 5.7-11.69 9.29-17a68.63 68.63 0 0 0 6.33-10.6c10.77-25.52 9.73-57.39-2.77-85.26v-0.05a12.5 12.5 0 0 1 22.81-10.24c1.55 3.47 7.69 7.54 13.11 11.12 5.66 3.75 11.51 7.62 16 12.8 22.39 26.09 13.28 66.27-8 88.54a100 100 0 0 1-10.94 9.78 109.94 109.94 0 0 1-29.72 16.51 12.57 12.57 0 0 1-4.22 0.74z m35.22-97.51a132.21 132.21 0 0 1-2.78 46.14c10.73-16.03 10.5-35.17 2.78-46.14zM415.49 681.49q-32.64 0-65.12-2.59a12.5 12.5 0 0 1 2-24.92 795.29 795.29 0 0 0 143.83-1.59 12.5 12.5 0 0 1 2.54 24.87 820 820 0 0 1-83.25 4.23zM728.74 541.62c-0.41 0-0.83 0-1.23-0.06s-0.82-0.11-1.22-0.19a13.12 13.12 0 0 1-2.34-0.71 12.32 12.32 0 0 1-2.15-1.15 10.1 10.1 0 0 1-1-0.73 10.2 10.2 0 0 1-0.91-0.82 12.09 12.09 0 0 1-0.83-0.92 11.86 11.86 0 0 1-0.73-1 13.55 13.55 0 0 1-1.15-2.16 12.88 12.88 0 0 1-0.71-2.34 12.615 12.615 0 0 1-0.24-2.44c0-0.41 0-0.82 0.06-1.23a12.16 12.16 0 0 1 0.18-1.21 12.64 12.64 0 0 1 0.71-2.34 13.13 13.13 0 0 1 1.15-2.16c0.23-0.34 0.47-0.67 0.73-1s0.54-0.62 0.83-0.91a10.3 10.3 0 0 1 0.91-0.83 11.93 11.93 0 0 1 1-0.72 12.7 12.7 0 0 1 4.49-1.87c0.4-0.08 0.81-0.14 1.22-0.18a12.64 12.64 0 0 1 2.46 0c0.4 0 0.81 0.1 1.21 0.18a12.16 12.16 0 0 1 2.34 0.72 12.32 12.32 0 0 1 2.15 1.15 11.93 11.93 0 0 1 1 0.72 12.09 12.09 0 0 1 0.92 0.83c0.28 0.29 0.56 0.6 0.82 0.91s0.5 0.65 0.73 1a12.41 12.41 0 0 1 1.15 2.16 12.64 12.64 0 0 1 0.71 2.34 12.16 12.16 0 0 1 0.18 1.21q0.06 0.61 0.06 1.23t-0.06 1.23c0 0.4-0.1 0.81-0.18 1.21a12.88 12.88 0 0 1-0.71 2.34 13.55 13.55 0 0 1-1.15 2.16 11.86 11.86 0 0 1-0.73 1c-0.26 0.32-0.54 0.63-0.82 0.92a12 12 0 0 1-0.92 0.82 10.1 10.1 0 0 1-1 0.73 12.32 12.32 0 0 1-2.15 1.15 12.88 12.88 0 0 1-2.34 0.71c-0.4 0.08-0.81 0.15-1.21 0.19s-0.83 0.06-1.23 0.06zM761.76 574.67c-0.4 0-0.82 0-1.23-0.06s-0.81-0.1-1.21-0.18a12.88 12.88 0 0 1-2.34-0.71 13.55 13.55 0 0 1-2.16-1.15 11.86 11.86 0 0 1-1-0.73 12.09 12.09 0 0 1-0.92-0.83 12.59 12.59 0 0 1-3.66-8.84c0-0.4 0-0.82 0.06-1.23s0.11-0.81 0.19-1.21a12.88 12.88 0 0 1 0.71-2.34 12.32 12.32 0 0 1 1.15-2.15 12 12 0 0 1 0.73-1 10.2 10.2 0 0 1 0.82-0.91 12.09 12.09 0 0 1 0.92-0.83 11.86 11.86 0 0 1 1-0.73 13.55 13.55 0 0 1 2.16-1.15 12.88 12.88 0 0 1 2.34-0.71c0.4-0.08 0.81-0.14 1.21-0.18a12.64 12.64 0 0 1 2.46 0c0.41 0 0.82 0.1 1.22 0.18a12.78 12.78 0 0 1 2.33 0.71 13.13 13.13 0 0 1 2.16 1.15c0.34 0.23 0.67 0.47 1 0.73a11.94 11.94 0 0 1 0.91 0.83 10.3 10.3 0 0 1 0.83 0.91 12 12 0 0 1 0.73 1 13 13 0 0 1 1.15 2.15 12.88 12.88 0 0 1 0.71 2.34 12.66 12.66 0 0 1 0.24 2.44 12.55 12.55 0 0 1-3.67 8.83 11.94 11.94 0 0 1-0.91 0.83c-0.32 0.26-0.65 0.5-1 0.73a12.64 12.64 0 0 1-4.49 1.86c-0.4 0.08-0.81 0.14-1.22 0.18s-0.81 0.07-1.22 0.07zM709.47 589.9c-0.41 0-0.83 0-1.23-0.07s-0.82-0.1-1.22-0.18a12.78 12.78 0 0 1-2.33-0.71 12.41 12.41 0 0 1-2.16-1.15c-0.34-0.23-0.67-0.47-1-0.73s-0.62-0.54-0.91-0.82a12.09 12.09 0 0 1-0.83-0.92 10.54 10.54 0 0 1-0.73-1 13 13 0 0 1-1.15-2.15 12.88 12.88 0 0 1-0.71-2.34 12.615 12.615 0 0 1-0.24-2.44c0-0.41 0-0.82 0.06-1.23s0.1-0.82 0.18-1.22a12.44 12.44 0 0 1 1.86-4.49 12 12 0 0 1 0.73-1 10.3 10.3 0 0 1 0.83-0.91 11.94 11.94 0 0 1 0.91-0.83c0.32-0.26 0.65-0.5 1-0.73a12.41 12.41 0 0 1 2.16-1.15 12.78 12.78 0 0 1 2.33-0.71c0.4-0.08 0.81-0.14 1.22-0.18a12.53 12.53 0 0 1 10.06 3.6 10.3 10.3 0 0 1 0.83 0.91 12 12 0 0 1 0.73 1 12.32 12.32 0 0 1 1.15 2.15 13.12 13.12 0 0 1 0.71 2.34c0.08 0.4 0.14 0.81 0.19 1.22s0.06 0.82 0.06 1.23 0 0.82-0.06 1.23-0.11 0.81-0.19 1.21a12.88 12.88 0 0 1-0.71 2.34 12.32 12.32 0 0 1-1.15 2.15 10.54 10.54 0 0 1-0.73 1 12.09 12.09 0 0 1-0.83 0.92 12.58 12.58 0 0 1-8.83 3.66z" fill="#4F0F34" /></svg>